HIERARCHY
ROOT hip
{
	OFFSET 0.000000 0.000000 0.000000
	CHANNELS 6 Xposition Yposition Zposition Zrotation Yrotation Xrotation 
	JOINT lhipjoint
	{
		OFFSET 0.000000 0.000000 0.000000
		CHANNELS 3 Zrotation Yrotation Xrotation
		JOINT lfemur
		{
			OFFSET 1.363060 -1.794630 0.839290
			CHANNELS 3 Zrotation Yrotation Xrotation
			JOINT ltibia
			{
				OFFSET 2.448110 -6.726130 0.000000
				CHANNELS 3 Zrotation Yrotation Xrotation
				JOINT lfoot
				{
					OFFSET 2.562200 -7.039590 0.000000
					CHANNELS 3 Zrotation Yrotation Xrotation
					JOINT ltoes
					{
						OFFSET 0.157640 -0.433110 2.322550
						CHANNELS 3 Zrotation Yrotation Xrotation
						End Site
						{
							OFFSET 0.000000 0.000000 0.000000
						}
					}
				}
			}
		}
	}
	JOINT rhipjoint
	{
		OFFSET 0.000000 0.000000 0.000000
		CHANNELS 3 Zrotation Yrotation Xrotation
		JOINT rfemur
		{
			OFFSET -1.305520 -1.794630 0.839290
			CHANNELS 3 Zrotation Yrotation Xrotation
			JOINT rtibia
			{
				OFFSET -2.542530 -6.985550 0.000000
				CHANNELS 3 Zrotation Yrotation Xrotation
				JOINT rfoot
				{
					OFFSET -2.568260 -7.056230 0.000000
					CHANNELS 3 Zrotation Yrotation Xrotation
					JOINT rtoes
					{
						OFFSET -0.164730 -0.452590 2.363150
						CHANNELS 3 Zrotation Yrotation Xrotation
						End Site
						{
							OFFSET 0.000000 0.000000 0.000000
						}
					}
				}
			}
		}
	}
	JOINT lowerback
	{
		OFFSET 0.000000 0.000000 0.000000
		CHANNELS 3 Zrotation Yrotation Xrotation
		JOINT upperback
		{
			OFFSET 0.028270 2.035590 -0.193380
			CHANNELS 3 Zrotation Yrotation Xrotation
			JOINT thorax
			{
				OFFSET 0.056720 2.048850 -0.042750
				CHANNELS 3 Zrotation Yrotation Xrotation
				JOINT lowerneck
				{
					OFFSET 0.000000 0.000000 0.000000
					CHANNELS 3 Zrotation Yrotation Xrotation
					JOINT upperneck
					{
						OFFSET -0.054170 1.746240 0.172020
						CHANNELS 3 Zrotation Yrotation Xrotation
						JOINT head
						{
							OFFSET 0.104070 1.761360 -0.123970
							CHANNELS 3 Zrotation Yrotation Xrotation
							End Site
							{
								OFFSET 0.000000 0.000000 0.000000
							}
						}
					}
				}
				JOINT lclavicle
				{
					OFFSET 0.000000 0.000000 0.000000
					CHANNELS 3 Zrotation Yrotation Xrotation
					JOINT lhumerus
					{
						OFFSET 3.362410 1.200890 -0.311210
						CHANNELS 3 Zrotation Yrotation Xrotation
						JOINT lradius
						{
							OFFSET 4.983000 -0.000000 -0.000000
							CHANNELS 3 Zrotation Yrotation Xrotation
							JOINT lwrist
							{
								OFFSET 3.483560 -0.000000 -0.000000
								CHANNELS 3 Zrotation Yrotation Xrotation
								JOINT lhand
								{
									OFFSET 0.000000 0.000000 0.000000
									CHANNELS 3 Zrotation Yrotation Xrotation
									JOINT lfingers
									{
										OFFSET 0.715260 -0.000000 -0.000000
										CHANNELS 3 Zrotation Yrotation Xrotation
										End Site
										{
											OFFSET 0.000000 0.000000 0.000000
										}
									}
								}
								JOINT lthumb
								{
									OFFSET 0.000000 0.000000 0.000000
									CHANNELS 3 Zrotation Yrotation Xrotation
									End Site
									{
										OFFSET 0.000000 0.000000 0.000000
									}
								}
							}
						}
					}
				}
				JOINT rclavicle
				{
					OFFSET 0.000000 0.000000 0.000000
					CHANNELS 3 Zrotation Yrotation Xrotation
					JOINT rhumerus
					{
						OFFSET -3.136600 1.374050 -0.404650
						CHANNELS 3 Zrotation Yrotation Xrotation
						JOINT rradius
						{
							OFFSET -5.241900 -0.000000 -0.000000
							CHANNELS 3 Zrotation Yrotation Xrotation
							JOINT rwrist
							{
								OFFSET -3.444170 -0.000000 -0.000000
								CHANNELS 3 Zrotation Yrotation Xrotation
								JOINT rhand
								{
									OFFSET 0.000000 0.000000 0.000000
									CHANNELS 3 Zrotation Yrotation Xrotation
									JOINT rfingers
									{
										OFFSET -0.622530 -0.000000 -0.000000
										CHANNELS 3 Zrotation Yrotation Xrotation
										End Site
										{
											OFFSET 0.000000 0.000000 0.000000
										}
									}
								}
								JOINT rthumb
								{
									OFFSET 0.000000 0.000000 0.000000
									CHANNELS 3 Zrotation Yrotation Xrotation
									End Site
									{
										OFFSET 0.000000 0.000000 0.000000
									}
								}
							}
						}
					}
				}
			}
		}
	}
}
MOTION
Frames: 11
Frame Time: 0.008333
0.808174 17.208501 2.441990 179.156851 -5.613633 -174.551853 -4.804721 -2.863796 -0.430953 -14.455844 6.381363 -21.211359 3.819303 10.802601 30.928173 0.248707 -12.095419 -9.214864 0.035700 -1.218900 -3.351300 2.153057 3.678838 -2.470179 17.810563 -15.844139 -17.815770 -4.177158 -11.350793 30.370710 -1.075631 7.742676 -17.663610 -1.433500 7.570300 -21.416200 4.680025 -0.390233 -4.749430 2.532998 -0.912433 -4.815938 1.010109 -1.067506 8.724953 -4.180261 0.056203 -13.723588 -7.037004 2.605969 28.149027 -3.501100 0.036200 9.162700 -4.996615 -2.635358 2.867918 -68.178190 6.340267 55.939179 13.684183 -26.899300 -3.109590 0.309856 1.091886 11.386423 18.491111 -11.347871 -4.135900 -7.125000 0.000000 0.000000 -6.131700 16.826900 4.118000 6.932092 4.020575 3.202774 64.448331 9.359803 -26.307537 5.167200 3.604748 -0.215289 -0.237432 0.465755 59.394719 -14.133465 8.578725 -2.066100 7.125000 0.000000 0.000000 9.564400 -21.216700 5.530900 
0.788915 17.209217 2.439571 179.205201 -6.114668 -174.537883 -4.799842 -2.868445 -0.434342 -14.461999 6.374380 -21.323880 3.836733 10.808645 30.995884 0.198940 -12.689044 -8.814245 0.025700 -1.035700 -2.847100 2.163581 3.698189 -2.481569 17.808242 -16.226214 -17.880479 -4.146628 -11.353920 30.322320 -1.071459 7.629576 -17.661674 -1.412000 7.515600 -21.252200 4.567101 -0.295014 -4.667630 2.494839 -0.764713 -4.799923 0.956981 -0.987551 8.727639 -4.359047 -0.113441 -13.732574 -6.825162 2.345775 28.129419 -3.397300 -0.072700 9.111200 -5.019254 -2.702150 2.893250 -67.630631 5.766688 56.423347 14.149155 -27.348208 -3.249089 0.302186 1.100714 10.772868 18.517825 -11.358449 -4.147300 -7.125000 0.000000 0.000000 -6.115400 16.806600 4.109700 6.864809 4.045246 3.187509 65.075079 8.143277 -27.948326 5.027838 3.497709 -0.225699 -0.236948 0.495288 59.027669 -14.529235 9.054013 -2.237300 7.125000 0.000000 0.000000 9.281500 -20.735000 5.465300 
0.769924 17.210024 2.436436 179.260760 -6.582376 -174.513952 -4.790772 -2.874418 -0.438763 -14.468033 6.436984 -21.460231 3.852298 10.814168 31.059460 0.145013 -13.312322 -8.414733 0.020300 -0.920000 -2.528700 2.174573 3.706683 -2.489495 17.820173 -16.436220 -17.897700 -4.125830 -11.356597 30.282865 -1.070440 7.394671 -17.720206 -1.382900 7.440900 -21.028200 4.491964 -0.158776 -4.594281 2.439778 -0.566696 -4.785356 0.812580 -0.876060 8.724701 -4.503287 -0.293294 -13.751142 -6.554932 2.057269 28.101372 -3.279500 -0.182700 9.055700 -5.048361 -2.779899 2.918328 -66.938639 5.238406 56.954078 14.650571 -27.829209 -3.402339 0.299074 1.101575 10.266493 18.441677 -11.409216 -4.143500 -7.125000 0.000000 0.000000 -6.173800 16.761200 4.155500 6.775251 4.078677 3.176075 65.947557 6.740486 -29.577641 4.629168 3.804863 -0.250973 -0.222609 0.504842 58.562787 -14.768940 9.620011 -2.413300 7.125000 0.000000 0.000000 9.093300 -20.169200 5.468900 
0.749948 17.210382 2.433838 179.310454 -7.043969 -174.481671 -4.783210 -2.878809 -0.442191 -14.475464 6.443607 -21.586836 3.869513 10.818251 31.124322 0.089445 -13.913171 -8.013013 0.013500 -0.750900 -2.063700 2.186594 3.714907 -2.494989 17.825731 -16.699946 -17.948303 -4.102258 -11.358055 30.239323 -1.069249 7.250995 -17.758994 -1.342800 7.336700 -20.716700 4.419007 -0.036279 -4.518708 2.388048 -0.387376 -4.776305 0.661728 -0.772913 8.702180 -4.623219 -0.456367 -13.783739 -6.304199 1.794313 28.104815 -3.174600 -0.284200 9.023600 -5.074709 -2.866361 2.940950 -66.241098 4.755034 57.422517 15.171108 -28.333460 -3.567727 0.301034 1.098897 9.817508 18.295147 -11.508022 -4.135900 -7.125000 0.000000 0.000000 -6.284800 16.675400 4.242900 6.682490 4.130094 3.166703 66.927241 5.192716 -31.121964 4.049344 4.415568 -0.289493 -0.195415 0.502841 58.145439 -14.922583 10.314035 -2.612000 7.125000 0.000000 0.000000 8.954700 -19.480700 5.523200 
0.730062 17.210113 2.430882 179.345171 -7.482795 -174.457099 -4.773300 -2.888177 -0.445614 -14.516453 6.638143 -21.770382 3.882874 10.823107 31.183128 0.018539 -14.649056 -7.539354 0.006800 -0.530700 -1.458200 2.198537 3.725032 -2.504303 17.804726 -16.855743 -17.933612 -4.081146 -11.358621 30.191152 -1.070759 7.000581 -17.860463 -1.320500 7.278000 -20.541500 4.337112 0.075400 -4.446112 2.332858 -0.222039 -4.760158 0.481589 -0.676739 8.714595 -4.737360 -0.605562 -13.842537 -6.049306 1.558396 28.083873 -3.067200 -0.370500 8.990600 -5.105969 -2.950792 2.964879 -65.504113 4.292775 57.835764 15.711537 -28.858889 -3.745936 0.302150 1.093052 9.375879 18.114964 -11.582450 -4.110800 -7.125000 0.000000 0.000000 -6.418200 16.621500 4.341700 6.582391 4.180631 3.157594 68.012247 3.660356 -32.598041 3.360967 5.218776 -0.339632 -0.155918 0.491933 57.800617 -14.944215 11.095300 -2.811300 7.125000 0.000000 0.000000 8.901600 -18.715200 5.643100 
0.710803 17.209576 2.428374 179.382218 -7.912760 -174.424974 -4.761050 -2.894723 -0.449689 -14.553379 6.733129 -21.925257 3.898635 10.826338 31.243952 -0.046521 -15.301356 -7.131696 0.003200 -0.362500 -0.996000 2.212505 3.729672 -2.509999 17.791724 -16.986099 -17.925247 -4.060321 -11.355564 30.133764 -1.070111 6.721000 -17.950854 -1.303200 7.232000 -20.404500 4.268820 0.203183 -4.368907 2.265213 -0.034432 -4.749172 0.230187 -0.565129 8.693311 -4.795580 -0.762359 -13.830971 -5.756298 1.284450 28.036139 -2.961200 -0.459500 8.927000 -5.143987 -3.046388 2.993418 -64.607912 3.889130 58.348553 16.304446 -29.430111 -3.949448 0.305548 1.085192 8.972672 17.980505 -11.709785 -4.112200 -7.125000 0.000000 0.000000 -6.521800 16.510600 4.428500 6.478251 4.244088 3.143057 69.221597 2.046129 -34.091046 2.596166 6.153855 -0.403627 -0.109177 0.483177 57.466790 -14.976659 12.069592 -3.061300 7.125000 0.000000 0.000000 8.840800 -17.759200 5.792500 
0.690916 17.209128 2.425149 179.437590 -8.315327 -174.396009 -4.750396 -2.904607 -0.452905 -14.579385 6.916857 -22.102786 3.911899 10.830427 31.301816 -0.118823 -15.986508 -6.707101 0.000700 -0.173400 -0.476500 2.222905 3.735384 -2.517252 17.798844 -17.139246 -17.914318 -4.036641 -11.348371 30.061296 -1.069242 6.486089 -18.026392 -1.279300 7.167900 -20.213800 4.219407 0.315253 -4.306409 2.207372 0.125526 -4.737443 0.003644 -0.467288 8.685943 -4.897883 -0.887867 -13.846014 -5.466350 1.063828 28.011696 -2.842700 -0.532600 8.883900 -5.184090 -3.142337 3.021967 -63.747308 3.524560 58.794334 16.909379 -30.015755 -4.165498 0.308351 1.076596 8.592813 17.844017 -11.808142 -4.103400 -7.125000 0.000000 0.000000 -6.625400 16.430900 4.511400 6.380943 4.307455 3.124894 70.408094 0.507081 -35.522964 1.823062 7.116760 -0.475354 -0.056101 0.479567 57.239522 -15.005075 13.185554 -3.345400 7.125000 0.000000 0.000000 8.788700 -16.666600 5.970200 
0.672194 17.206709 2.421925 179.475066 -8.726086 -174.375150 -4.737324 -2.911255 -0.458081 -14.609611 6.950437 -22.207106 3.927700 10.834655 31.361582 -0.184107 -16.548987 -6.295375 0.000100 0.078100 0.214700 2.234392 3.742826 -2.526654 17.783356 -17.222035 -17.850894 -4.012689 -11.338974 29.977262 -1.070910 6.206739 -18.149947 -1.258600 7.111900 -20.047300 4.144817 0.426659 -4.233038 2.142283 0.290370 -4.722991 -0.238708 -0.370083 8.702733 -4.929207 -1.033125 -13.856378 -5.222103 0.815187 27.969344 -2.761900 -0.613700 8.830900 -5.241414 -3.229037 3.040175 -62.754129 3.168439 59.447618 17.582206 -30.653162 -4.411265 0.304955 1.071133 8.027832 17.839728 -11.903547 -4.127600 -7.125000 0.000000 0.000000 -6.635600 16.340400 4.531500 6.324326 4.366299 3.155669 71.519172 -1.075680 -29.326458 1.390441 9.373155 -0.592812 -0.198732 0.323897 49.701573 -15.015927 12.827866 -3.310500 7.125000 0.000000 0.000000 8.742100 -16.868100 5.898900 
0.653293 17.205724 2.418521 179.530774 -9.124162 -174.360130 -4.726056 -2.916975 -0.461961 -14.614671 6.954464 -22.284378 3.942390 10.839454 31.417957 -0.246475 -17.057158 -5.905089 0.003700 0.394600 1.084100 2.240888 3.746299 -2.535346 17.794468 -17.235406 -17.749300 -3.991737 -11.326289 29.886599 -1.071071 5.894559 -18.266296 -1.211900 6.983600 -19.666900 4.074909 0.510642 -4.162699 2.090442 0.415087 -4.713627 -0.428158 -0.292160 8.697240 -5.051779 -1.145713 -13.806587 -4.960160 0.607431 27.883283 -2.651300 -0.682300 8.748400 -5.304545 -3.322615 3.061709 -61.775501 2.904750 60.080041 18.304666 -31.338606 -4.686917 0.294131 1.069295 7.401217 17.945392 -11.918610 -4.156800 -7.125000 0.000000 0.000000 -6.563900 16.320300 4.484700 6.287492 4.420513 3.180183 72.528772 -2.566651 -24.515633 0.739148 11.488650 -0.728648 -0.301651 0.159577 43.672965 -15.090129 12.618950 -3.324700 7.125000 0.000000 0.000000 8.658400 -16.917200 5.831700 
0.635467 17.203126 2.414310 179.566436 -9.535431 -174.340718 -4.714051 -2.921762 -0.467710 -14.641416 6.911954 -22.345250 3.958205 10.843688 31.474546 -0.304848 -17.501053 -5.516748 0.011400 0.688500 1.892200 2.248652 3.755898 -2.547846 17.785094 -17.290027 -17.649928 -3.966723 -11.313624 29.789735 -1.071875 5.629321 -18.383343 -1.177400 6.887000 -19.381100 3.973538 0.584501 -4.125221 2.037273 0.528493 -4.695692 -0.613367 -0.224709 8.749432 -5.132028 -1.265640 -13.822326 -4.729156 0.406652 27.816164 -2.561800 -0.747600 8.691600 -5.372208 -3.399436 3.081963 -60.765588 2.615811 60.748142 19.024011 -32.014872 -4.973266 0.279677 1.071259 6.724093 18.201687 -11.956113 -4.232900 -7.125000 0.000000 0.000000 -6.386700 16.259000 4.370700 6.259790 4.465208 3.198521 73.510306 -3.890985 -20.758446 -0.034566 13.449511 -0.880840 -0.380708 -0.004795 38.736922 -15.285863 12.497076 -3.386800 7.125000 0.000000 0.000000 8.498800 -16.869900 5.730600 
0.617731 17.200797 2.410369 179.603882 -9.921304 -174.354201 -4.701411 -2.926955 -0.474282 -14.656826 6.798148 -22.334942 3.972201 10.847853 31.522232 -0.351457 -17.832855 -5.184160 0.024100 1.001900 2.754000 2.254951 3.767143 -2.562242 17.768487 -17.265868 -17.485015 -3.944888 -11.304283 29.700037 -1.072605 5.307641 -18.524099 -1.145300 6.795700 -19.111400 3.873369 0.650288 -4.053186 1.985797 0.633235 -4.678745 -0.787014 -0.161990 8.771511 -5.239268 -1.371238 -13.760851 -4.497441 0.213198 27.725550 -2.464500 -0.811300 8.608500 -5.438885 -3.476995 3.104979 -59.797461 2.374306 61.305417 19.707521 -32.654010 -5.259699 0.262492 1.076268 6.102352 18.570094 -11.979863 -4.335500 -7.125000 0.000000 0.000000 -6.129100 16.197600 4.200400 6.240169 4.503537 3.210934 74.390251 -5.062483 -17.878000 -0.794892 15.135615 -1.032743 -0.440680 -0.153527 34.693008 -15.501017 12.507529 -3.481800 7.125000 0.000000 0.000000 8.336200 -16.700200 5.649700 
